HIERARCHY
ROOT Hips
{
  OFFSET 0.0000 0.0000 0.0000
  CHANNELS 6 Xposition Yposition Zposition Zrotation Xrotation Yrotation
  JOINT LeftHip
  {
    OFFSET 3.4300 0.0000 0.0000
    CHANNELS 3 Zrotation Xrotation Yrotation
    JOINT LeftKnee
    {
      OFFSET 0.0000 -18.4700 0.0000
      CHANNELS 3 Zrotation Xrotation Yrotation
      JOINT LeftAnkle
      {
        OFFSET -0.0000 -17.9500 0.0000
        CHANNELS 3 Zrotation Xrotation Yrotation
        End Site
        {
            OFFSET 0.0000 -3.1200 -0.0000
        }
      }
    }
  }
  JOINT RightHip
  {
    OFFSET -3.4300 0.0000 0.0000
    CHANNELS 3 Zrotation Xrotation Yrotation
    JOINT RightKnee
    {
      OFFSET -0.0000 -18.4700 0.0000
      CHANNELS 3 Zrotation Xrotation Yrotation
      JOINT RightAnkle
      {
        OFFSET 0.0000 -17.9500 -0.0000
        CHANNELS 3 Zrotation Xrotation Yrotation
        End Site
        {
            OFFSET 0.0000 -3.1200 0.0000
        }
      }
    }
  }
  JOINT Chest
  {
    OFFSET 0.0000 4.5700 -0.0000
    CHANNELS 3 Zrotation Xrotation Yrotation
    JOINT Chest2
    {
      OFFSET 0.0000 6.5700 0.0000
      CHANNELS 3 Zrotation Xrotation Yrotation
      JOINT LeftCollar
      {
        OFFSET 1.0600 4.1900 1.7600
        CHANNELS 3 Zrotation Xrotation Yrotation
        JOINT LeftShoulder
        {
          OFFSET 5.8100 0.0000 0.0000
          CHANNELS 3 Zrotation Xrotation Yrotation
          JOINT LeftElbow
          {
            OFFSET 0.0000 -12.0800 0.0000
            CHANNELS 3 Zrotation Xrotation Yrotation
            JOINT LeftWrist
            {
              OFFSET -0.0000 -9.8200 0.0000
              CHANNELS 3 Zrotation Xrotation Yrotation
              End Site
              {
                  OFFSET 0.0000 -7.3700 -0.0000
              }
            }
          }
        }
      }
      JOINT RightCollar
      {
        OFFSET -1.0600 4.1900 1.7600
        CHANNELS 3 Zrotation Xrotation Yrotation
        JOINT RightShoulder
        {
          OFFSET -6.0600 0.0000 -0.0000
          CHANNELS 3 Zrotation Xrotation Yrotation
          JOINT RightElbow
          {
            OFFSET 0.0000 -11.0800 0.0000
            CHANNELS 3 Zrotation Xrotation Yrotation
            JOINT RightWrist
            {
              OFFSET 0.0000 -9.8200 0.0000
              CHANNELS 3 Zrotation Xrotation Yrotation
              End Site
              {
                  OFFSET 0.0000 -7.1400 0.0000
              }
            }
          }
        }
      }
      JOINT Neck
      {
        OFFSET 0.0000 4.0500 0.0000
        CHANNELS 3 Zrotation Xrotation Yrotation
        JOINT Head
        {
          OFFSET -0.0000 5.1900 0.0000
          CHANNELS 3 Zrotation Xrotation Yrotation
          End Site
          {
              OFFSET 0.0000 4.1400 0.0000
          }
        }
      }
    }
  }
}
MOTION
Frames:	33
Frame Time:	0.033333
-32.0472 39.2980 -1.1253 -5.92 2.16 74.35 -3.28 -6.80 4.96 -0.05 27.47 -10.75 8.27 -17.68 1.71 -2.09 -24.31 -9.20 0.20 39.75 30.36 -12.18 -8.28 -1.25 6.10 9.20 -1.62 0.26 0.41 -0.20 10.00 0.00 -0.00 -7.16 -66.93 -12.10 0.21 0.35 -0.00 -21.93 20.35 -56.01 -10.00 -0.00 0.00 -17.20 -19.01 -48.68 -0.34 0.02 0.00 13.90 23.55 82.49 1.18 -1.15 4.08 -0.92 17.96 4.53 
-32.5544 39.1540 -1.1619 -6.25 1.77 73.43 -3.05 -8.62 4.28 -0.03 33.05 -8.79 8.32 -16.23 1.98 -0.91 -24.59 -8.16 0.20 37.92 30.20 -11.59 -10.19 -1.21 6.00 8.77 -1.57 0.26 0.39 -0.20 10.00 0.00 -0.00 -9.48 -68.30 -19.50 0.20 0.35 -0.00 -26.59 22.87 -52.94 -10.00 -0.00 0.00 -15.77 -18.86 -48.82 -0.34 0.02 0.00 13.81 22.88 82.91 1.35 -1.13 4.66 -1.11 17.89 5.21 
-32.8757 39.0879 -1.2295 -4.29 0.75 72.19 -2.71 -7.94 4.42 -0.01 36.50 -8.19 8.73 -14.75 1.79 -0.31 -21.82 -8.04 0.21 35.57 31.76 -11.16 -11.39 -1.05 5.66 10.76 -1.58 0.24 0.48 -0.18 10.00 0.00 -0.00 -14.04 -69.98 -27.96 0.21 0.34 -0.00 -30.06 26.60 -50.72 -10.00 -0.00 0.00 -15.15 -19.25 -47.15 -0.33 0.02 0.00 14.30 22.64 82.03 1.53 -1.12 5.31 -0.34 18.01 5.58 
-33.4623 38.9157 -1.2839 -4.46 1.02 72.04 -2.58 -12.17 5.83 0.00 43.24 -8.23 9.21 -11.42 2.48 -0.12 -22.52 -7.91 0.21 34.39 30.98 -10.51 -12.98 -1.02 4.55 10.24 -1.25 0.20 0.45 -0.15 10.00 0.00 -0.00 -20.94 -72.50 -39.13 0.23 0.29 -0.00 -34.09 29.86 -51.29 -10.00 -0.00 0.00 -13.98 -18.75 -46.59 -0.33 0.03 0.00 14.23 21.01 82.21 1.61 -1.11 5.59 0.65 18.15 5.51 
-33.9320 38.8838 -1.2350 -3.43 0.15 71.65 -1.00 -14.11 8.27 0.00 48.52 -10.45 10.38 -7.32 3.23 0.72 -21.92 -7.88 0.22 33.80 32.08 -10.41 -11.57 -1.05 4.42 11.40 -1.25 0.19 0.50 -0.14 10.00 0.00 -0.00 -24.84 -75.04 -47.87 0.23 0.28 -0.00 -36.29 31.11 -49.88 -10.00 -0.00 0.00 -13.14 -19.20 -47.25 -0.33 0.03 0.00 13.16 19.75 82.96 1.48 -1.12 5.12 -1.28 17.95 5.74 
-34.5116 38.9266 -1.3514 -3.25 -0.24 73.54 0.13 -17.57 8.82 0.00 53.38 -12.49 11.29 -0.87 3.10 0.33 -21.89 -10.68 0.22 32.02 32.70 -9.70 -9.62 -1.38 4.27 11.42 -1.20 0.18 0.50 -0.12 10.00 0.00 -0.00 -40.39 -75.97 -65.82 0.23 0.28 -0.00 -36.52 30.85 -50.03 -10.00 -0.00 0.00 -12.47 -16.53 -46.23 -0.32 0.04 0.00 15.42 16.09 80.96 1.43 -1.13 4.95 -0.06 17.92 5.12 
-35.0428 39.1451 -1.4733 -2.08 -3.14 74.35 3.85 -18.27 10.59 -0.01 55.78 -15.09 12.09 4.01 2.47 3.28 -17.74 -13.17 0.22 25.13 31.88 -7.83 -5.59 -1.25 6.71 13.58 -1.98 0.28 0.60 -0.17 10.00 0.00 -0.00 -47.72 -76.74 -74.98 0.21 0.33 -0.00 -34.67 29.37 -48.69 -10.00 -0.00 0.00 -12.56 -16.26 -45.15 -0.31 0.08 0.00 15.46 14.39 78.83 1.37 -1.13 4.76 -0.31 17.57 5.01 
-35.8307 38.8492 -1.8207 -3.73 -2.58 70.65 4.79 -22.73 13.47 0.02 58.88 -13.80 11.84 4.88 3.07 2.66 -22.51 -15.62 0.27 28.83 38.27 -9.40 -4.53 -1.76 5.33 12.41 -1.52 0.23 0.55 -0.14 10.00 0.00 -0.00 -35.93 -78.71 -63.08 0.21 0.34 -0.00 -31.52 26.69 -50.90 -10.00 -0.00 0.00 -11.88 -19.03 -44.97 -0.31 0.08 0.00 13.42 15.65 79.60 1.86 -1.08 6.46 -1.06 17.93 7.04 
-36.6601 38.8211 -2.0715 -4.06 -2.02 68.45 5.47 -24.20 15.38 0.02 58.46 -13.44 12.06 2.68 3.21 3.30 -24.06 -14.24 0.29 28.18 40.33 -9.02 -3.08 -1.61 3.62 12.94 -1.04 0.15 0.57 -0.08 10.00 0.00 -0.00 -19.32 -80.03 -48.60 0.19 0.40 -0.00 -30.20 22.22 -49.65 -10.00 -0.00 0.00 -11.34 -20.47 -42.47 -0.30 0.11 0.00 13.80 14.42 77.17 2.23 -1.04 7.76 -0.43 16.87 8.15 
-37.3952 38.9773 -2.3657 -3.60 -0.56 67.66 3.38 -24.40 13.87 0.02 55.73 -12.10 10.77 0.83 2.95 1.97 -23.93 -14.66 0.30 25.86 41.94 -7.89 -1.97 -1.17 1.02 13.88 -0.26 0.04 0.61 0.02 10.00 0.00 -0.00 -15.46 -81.77 -44.86 0.18 0.42 -0.00 -29.81 19.84 -48.91 -10.00 -0.00 0.00 -10.97 -21.39 -42.63 -0.28 0.16 0.00 13.57 13.13 74.67 2.15 -1.05 7.47 0.21 15.54 7.64 
-37.9593 39.1728 -2.5841 -4.17 -2.13 66.20 5.37 -23.98 14.69 0.03 53.81 -10.28 9.33 -0.97 1.77 4.53 -21.47 -13.68 0.31 20.60 42.38 -5.90 0.06 -0.46 1.88 14.49 -0.52 0.08 0.64 0.00 10.00 0.00 -0.00 5.00 -80.51 -25.54 0.15 0.49 -0.00 -27.52 13.64 -46.74 -10.00 -0.00 0.00 -11.79 -23.83 -41.19 -0.28 0.16 0.00 13.89 14.17 73.80 2.56 -0.99 8.89 0.52 15.57 9.00 
-38.6332 39.1231 -2.7726 -4.96 -3.66 65.22 7.81 -25.08 16.48 0.03 54.57 -10.76 9.40 -1.48 2.58 6.34 -21.41 -12.67 0.31 21.50 41.95 -6.29 -1.29 -0.72 2.65 15.05 -0.78 0.11 0.66 -0.04 10.00 0.00 -0.00 10.31 -79.37 -15.89 0.15 0.49 -0.00 -21.45 10.69 -49.37 -10.00 -0.00 0.00 -10.60 -26.39 -40.99 -0.29 0.14 0.00 12.70 15.11 76.25 2.67 -0.97 9.29 1.15 14.71 9.22 
-39.3038 39.1161 -2.8883 -5.42 -5.31 64.20 10.71 -25.82 18.66 0.02 55.74 -12.04 9.90 -0.85 3.87 7.43 -19.68 -10.28 0.31 22.41 41.95 -6.42 -1.74 -0.66 3.58 15.80 -1.11 0.15 0.70 -0.08 10.00 0.00 -0.00 23.30 -77.19 0.11 0.14 0.50 -0.00 -17.98 5.66 -50.71 -10.00 -0.00 0.00 -10.82 -30.07 -39.65 -0.30 0.11 0.00 12.81 16.90 77.60 2.80 -0.95 9.74 1.05 14.63 9.71 
-39.9191 39.0611 -3.0052 -6.22 -4.85 64.59 10.20 -26.80 17.92 0.00 54.25 -13.03 10.14 -2.84 4.01 5.38 -19.39 -10.67 0.29 26.38 40.20 -7.99 -6.99 -0.90 2.89 14.68 -0.87 0.12 0.65 -0.07 10.00 0.00 -0.00 22.77 -76.34 6.45 0.14 0.50 -0.00 -12.42 3.74 -52.58 -10.00 -0.00 0.00 -10.59 -31.63 -39.37 -0.31 0.08 0.00 12.27 18.61 79.69 2.71 -0.97 9.41 1.66 15.68 9.14 
-40.5526 39.0819 -3.1541 -6.13 -4.67 66.09 9.18 -26.81 16.24 -0.03 52.02 -14.95 10.78 -4.03 3.69 4.28 -16.90 -8.55 0.26 27.07 37.05 -8.15 -11.02 -0.78 2.28 14.76 -0.69 0.10 0.65 -0.05 10.00 0.00 -0.00 19.88 -75.37 9.66 0.14 0.51 -0.00 -8.37 0.93 -53.13 -10.00 -0.00 0.00 -10.67 -33.43 -39.70 -0.32 0.05 0.00 11.38 18.13 82.46 2.54 -0.99 8.84 2.73 15.75 8.17 
-41.0134 39.1044 -3.1999 -5.24 -5.23 66.05 9.07 -25.23 15.91 -0.03 49.85 -15.04 9.37 -6.21 3.43 4.76 -12.13 -7.95 0.24 26.34 34.35 -9.11 -14.05 -1.07 1.66 15.72 -0.52 0.07 0.69 -0.04 10.00 0.00 -0.00 22.43 -72.16 16.53 0.15 0.48 -0.00 -4.82 -2.23 -56.52 -10.00 -0.00 0.00 -10.87 -36.54 -38.19 -0.32 0.05 0.00 12.64 17.42 81.27 2.52 -1.00 8.75 3.10 15.97 7.94 
-41.5496 38.9997 -3.2078 -5.60 -5.08 67.14 8.93 -25.74 15.41 -0.05 48.56 -16.29 9.61 -8.72 3.34 5.52 -8.71 -6.65 0.22 25.67 31.29 -10.32 -17.28 -1.58 1.06 14.90 -0.33 0.04 0.66 -0.03 10.00 0.00 -0.00 20.77 -69.98 21.72 0.17 0.44 -0.00 -2.13 -4.35 -60.22 -10.00 -0.00 0.00 -10.67 -38.05 -36.18 -0.32 0.05 0.00 14.50 15.81 81.08 2.46 -1.00 8.57 4.20 16.44 7.34 
-42.2917 38.9181 -3.3974 -5.45 -3.38 67.50 6.63 -26.29 14.40 -0.05 45.88 -15.22 9.23 -10.57 3.34 3.59 -7.64 -6.58 0.21 28.62 31.49 -12.41 -18.07 -1.96 -1.22 14.46 0.38 -0.05 0.64 0.04 10.00 0.00 -0.00 19.44 -67.13 25.58 0.18 0.41 -0.00 0.93 -7.13 -63.05 -10.00 -0.00 0.00 -8.25 -40.72 -32.86 -0.32 0.06 0.00 16.02 15.55 79.70 2.27 -1.03 7.88 4.51 16.02 6.54 
-42.9549 38.8718 -3.4471 -5.97 -3.08 68.31 6.67 -27.22 13.88 -0.05 44.21 -15.03 8.80 -11.85 3.09 3.81 -7.78 -5.14 0.20 32.97 30.60 -11.74 -16.20 -1.51 -1.37 13.56 0.41 -0.06 0.60 0.04 10.00 0.00 -0.00 17.98 -63.45 28.70 0.17 0.43 -0.00 2.01 -10.04 -62.12 -10.00 -0.00 0.00 -6.67 -44.06 -29.94 -0.32 0.04 0.00 17.12 16.48 80.00 1.98 -1.07 6.88 3.12 16.23 5.99 
-43.5539 38.8321 -3.5136 -5.64 -2.71 69.67 5.57 -27.57 12.51 -0.05 42.70 -14.71 8.51 -11.99 2.71 3.39 -7.16 -3.94 0.20 36.95 30.05 -7.79 -13.77 -0.23 -1.94 13.48 0.58 -0.08 0.59 0.06 10.00 0.00 -0.00 16.56 -60.30 31.04 0.18 0.40 -0.00 2.26 -9.86 -64.49 -10.00 -0.00 0.00 -5.90 -47.34 -27.33 -0.33 0.03 0.00 18.55 19.38 79.93 1.98 -1.07 6.86 3.72 15.96 5.77 
-44.1952 38.9491 -3.5719 -3.76 -2.76 68.31 4.90 -24.96 12.02 -0.04 39.04 -11.88 7.01 -12.23 2.28 2.19 -5.06 -2.39 0.21 39.44 31.68 -7.55 -7.70 0.78 -3.20 15.28 1.01 -0.13 0.67 0.10 10.00 0.00 -0.00 18.50 -55.86 36.01 0.20 0.36 -0.00 2.51 -7.74 -67.58 -10.00 -0.00 0.00 -2.51 -52.67 -20.51 -0.33 0.03 0.00 20.94 22.48 77.63 2.18 -1.05 7.56 3.04 16.15 6.72 
-44.9463 38.9410 -3.6252 -3.84 -2.98 69.87 5.19 -25.42 11.80 -0.05 36.91 -12.83 6.70 -11.75 1.76 2.40 -5.97 -1.42 0.21 43.12 31.03 -7.73 -2.81 1.06 -2.49 15.26 0.79 -0.10 0.67 0.08 10.00 0.00 -0.00 17.00 -52.66 37.42 0.22 0.32 -0.00 2.48 -5.14 -71.25 -10.00 -0.00 0.00 -1.73 -55.77 -15.57 -0.32 0.04 0.00 25.70 22.96 73.97 1.93 -1.08 6.70 2.53 16.03 6.03 
-45.7792 38.9091 -3.7741 -3.98 -2.68 70.12 4.60 -26.47 10.54 -0.04 34.58 -11.58 5.78 -10.20 1.34 1.86 -7.69 -1.15 0.22 45.25 32.33 -9.76 -0.82 1.03 -2.33 15.13 0.73 -0.10 0.67 0.08 10.00 0.00 -0.00 15.71 -49.04 40.35 0.24 0.26 -0.00 3.26 -2.41 -75.96 -10.00 -0.00 0.00 0.08 -58.86 -7.55 -0.31 0.08 0.00 29.64 20.70 70.12 2.14 -1.05 7.42 1.57 16.13 7.10 
-46.5914 38.9579 -3.8569 -4.91 -2.46 69.59 4.88 -28.06 9.77 -0.03 32.27 -8.81 4.42 -7.54 1.11 2.25 -10.31 -0.54 0.23 46.34 33.24 -10.73 0.07 1.13 -2.18 14.18 0.66 -0.09 0.62 0.06 10.00 0.00 -0.00 15.66 -43.38 40.41 0.24 0.25 -0.00 2.99 0.39 -76.92 -10.00 -0.00 0.00 3.18 -62.07 -0.89 -0.30 0.12 0.00 31.42 18.14 67.18 2.09 -1.06 7.27 1.16 15.78 7.10 
-47.4440 39.1693 -3.9092 -5.15 -1.95 70.51 4.01 -27.08 9.42 -0.03 26.41 -7.76 3.71 -3.26 0.57 2.69 -12.08 0.05 0.22 46.49 32.32 -10.03 1.02 1.26 -2.17 14.15 0.63 -0.09 0.62 0.03 10.00 0.00 -0.00 14.70 -40.65 41.96 0.27 0.19 -0.00 2.18 5.21 -81.00 -10.00 -0.00 0.00 2.93 -63.57 3.58 -0.27 0.19 0.00 33.71 13.05 63.80 2.12 -1.05 7.37 0.78 14.98 7.35 
-48.3189 39.4776 -4.1198 -5.02 -0.60 70.83 1.88 -23.02 8.91 -0.05 15.24 -8.33 2.74 3.41 0.05 1.58 -13.90 -0.11 0.21 46.31 32.05 -9.37 1.93 1.38 -3.09 14.74 0.88 -0.13 0.65 0.01 10.00 0.00 -0.00 12.91 -37.40 40.95 0.28 0.15 -0.00 0.78 10.45 -83.12 -10.00 -0.00 0.00 1.32 -64.66 6.57 -0.22 0.31 0.00 34.68 5.52 59.53 2.09 -1.06 7.26 0.56 13.57 7.33 
-49.2660 39.4714 -4.3598 -5.92 -0.17 73.96 0.68 -23.11 9.64 -0.09 11.79 -12.86 2.81 6.04 -0.26 1.42 -16.85 -1.66 0.20 47.43 30.70 -8.49 1.24 0.87 -1.81 14.65 0.47 -0.08 0.65 -0.04 10.00 0.00 -0.00 11.07 -38.09 41.32 0.32 0.06 -0.00 1.65 21.08 -90.02 -10.00 -0.00 0.00 -7.21 -64.07 2.50 -0.16 0.45 0.00 35.81 -3.71 54.39 1.73 -1.10 6.00 0.55 12.90 6.05 
-50.0830 39.5149 -4.4972 -4.42 0.22 75.90 0.12 -22.07 9.13 -0.10 14.31 -15.15 2.67 3.93 -0.05 0.76 -16.93 -2.46 0.19 47.81 29.63 -7.87 0.58 0.77 -1.61 17.22 0.47 -0.07 0.76 -0.02 10.00 0.00 -0.00 9.97 -39.56 44.10 0.34 -0.00 0.00 4.47 31.15 -98.20 -10.00 -0.00 0.00 -12.64 -63.67 -0.64 -0.13 0.53 0.00 36.06 -10.69 53.26 1.35 -1.13 4.70 -0.02 11.02 4.89 
-50.7548 39.5366 -4.7380 -4.32 1.08 76.27 -0.95 -21.43 8.79 -0.12 15.04 -16.99 2.96 2.59 0.04 -0.28 -18.28 -2.90 0.19 48.22 29.88 -9.23 0.41 0.73 -1.38 17.41 0.39 -0.06 0.77 -0.03 10.00 0.00 -0.00 9.68 -39.28 45.13 0.34 -0.00 0.00 7.42 40.94 -104.62 -10.00 -0.00 0.00 -17.07 -63.20 -3.02 -0.12 -4.48 -0.01 35.92 -11.49 50.70 1.51 -1.12 5.24 -0.51 11.15 5.61 
-51.3454 39.6280 -4.8963 -4.70 1.91 76.05 -1.62 -20.73 8.03 -0.11 15.08 -15.94 2.94 1.22 0.11 -1.06 -19.87 -3.34 0.19 48.15 29.74 -9.68 0.70 0.65 -1.51 16.70 0.42 -0.06 0.73 -0.02 10.00 0.00 -0.00 10.34 -38.50 47.33 0.34 -0.00 0.00 11.86 48.70 -112.17 -10.00 -0.00 0.00 -18.04 -62.64 -5.11 -0.12 -6.40 -0.01 35.75 -12.77 52.00 1.50 -1.12 5.20 -0.60 12.17 5.59 
-51.8410 39.6345 -5.0969 -4.89 2.32 77.36 -2.33 -20.43 8.13 -0.11 17.15 -16.53 3.87 -1.25 0.30 -1.98 -21.72 -4.89 0.18 49.21 29.34 -5.93 0.84 0.65 -0.82 16.23 0.20 -0.03 0.71 -0.04 10.00 0.00 -0.00 10.06 -39.49 48.40 0.34 -0.00 0.00 18.36 53.27 -121.36 -10.00 -0.00 0.00 -22.89 -59.68 -9.61 -0.11 -9.96 -0.02 34.60 -12.44 50.29 1.25 -1.14 4.35 -0.10 12.17 4.55 
-52.2390 39.6884 -5.2779 -4.81 2.44 77.77 -2.55 -18.87 8.43 -0.13 17.96 -19.14 4.62 -3.28 0.45 -2.33 -21.74 -4.93 0.19 48.93 29.52 -9.29 1.60 0.45 0.07 16.01 -0.08 0.00 0.70 -0.07 10.00 0.00 -0.00 9.50 -40.14 46.93 0.34 -0.00 0.00 19.01 54.65 -123.10 -10.00 -0.00 0.00 -25.44 -57.35 -12.16 -0.12 -9.72 -0.02 35.43 -13.07 51.79 1.13 -1.15 3.91 -0.83 12.08 4.33 
-52.6577 39.6735 -5.4883 -5.52 3.84 77.68 -3.86 -18.10 6.36 -0.12 18.97 -18.05 4.85 -6.07 0.53 -3.91 -23.25 -5.46 0.19 48.62 29.55 -11.26 0.44 0.27 -0.76 14.60 0.18 -0.03 0.64 -0.03 10.00 0.00 -0.00 8.86 -41.37 42.84 0.34 -0.00 0.00 13.12 54.91 -115.78 -10.00 -0.00 0.00 -26.29 -54.14 -14.16 -0.13 -7.95 -0.02 35.87 -13.09 54.26 1.29 -1.14 4.48 0.31 12.42 4.55 
